<svg width="296" height="497" viewBox="0 0 296 497" fill="none" xmlns="http://www.w3.org/2000/svg">
<g filter="url(#filter0_i_21_18)">
<path d="M0.00450516 10C0.00450516 4.47715 4.48166 0 10.0045 0H285.004C290.527 0 295.004 4.47715 295.004 10V42C295.004 47.5228 290.527 52 285.004 52H10.0045C4.48164 52 0.00450516 47.5228 0.00450516 42V10Z" fill="#A06B87"/>
<path d="M0.00457382 189C0.00457382 183.477 4.48173 179 10.0046 179H285.004C290.527 179 295.004 183.477 295.004 189V221C295.004 226.523 290.527 231 285.004 231H10.0046C4.48173 231 0.00457382 226.523 0.00457382 221V189Z" fill="#A06B87"/>
<path d="M0.000411987 99.2941C0.000411987 93.7713 4.47756 89.2941 10.0004 89.2941H285C290.523 89.2941 295 93.7713 295 99.2941V131.294C295 136.817 290.523 141.294 285 141.294H10.0004C4.47756 141.294 0.000411987 136.817 0.000411987 131.294V99.2941Z" fill="#A06B87"/>
<path d="M0.00465393 278.308C0.00465393 272.785 4.48181 268.308 10.0047 268.308H285.004C290.527 268.308 295.004 272.785 295.004 278.308V310.308C295.004 315.831 290.527 320.308 285.004 320.308H10.0047C4.4818 320.308 0.00465393 315.831 0.00465393 310.308V278.308Z" fill="#A06B87"/>
<path d="M0.00450134 364C0.00450134 358.477 4.48165 354 10.0045 354H285.004C290.527 354 295.004 358.477 295.004 364V396C295.004 401.523 290.527 406 285.004 406H10.0045C4.48165 406 0.00450134 401.523 0.00450134 396V364Z" fill="#A06B87"/>
<path d="M0 455C0 449.477 4.47715 445 10 445H285C290.523 445 295 449.477 295 455V487C295 492.523 290.523 497 285 497H10C4.47715 497 0 492.523 0 487V455Z" fill="#A06B87"/>
</g>
<defs>
<filter id="filter0_i_21_18" x="-4" y="0" width="299.004" height="501" filterUnits="userSpaceOnUse" color-interpolation-filters="sRGB">
<feFlood flood-opacity="0" result="BackgroundImageFix"/>
<feBlend mode="normal" in="SourceGraphic" in2="BackgroundImageFix" result="shape"/>
<feColorMatrix in="SourceAlpha" type="matrix" values="0 0 0 0 0 0 0 0 0 0 0 0 0 0 0 0 0 0 127 0" result="hardAlpha"/>
<feOffset dx="-12" dy="8"/>
<feGaussianBlur stdDeviation="2"/>
<feComposite in2="hardAlpha" operator="arithmetic" k2="-1" k3="1"/>
<feColorMatrix type="matrix" values="0 0 0 0 0 0 0 0 0 0 0 0 0 0 0 0 0 0 0.25 0"/>
<feBlend mode="normal" in2="shape" result="effect1_innerShadow_21_18"/>
</filter>
</defs>
</svg>
